<?xml version="1.0" encoding="utf-8"?>
<!-- Generator: Adobe Illustrator 26.0.2, SVG Export Plug-In . SVG Version: 6.00 Build 0)  -->
<svg version="1.1" id="Layer_1" xmlns="http://www.w3.org/2000/svg" xmlns:xlink="http://www.w3.org/1999/xlink" x="0px" y="0px"
	 viewBox="0 0 3000 3000" style="enable-background:new 0 0 3000 3000;" xml:space="preserve">
<g>
	<path d="M1123.05,1097.06v-0.5l0.12,0.07V755.92L1500,583.1l753.68,465.65l243.97-111.89
		c-196.7-347.72-569.64-582.59-997.65-582.59c-632.76,0-1145.72,512.96-1145.72,1145.72c0,94.76,11.72,186.74,33.41,274.8
		l358.7-164.35v-341.09L1123.05,1097.06z"/>
	<polygon points="746.39,1610.45 1500.2,2076.26 1876.85,1903.45 1123.05,1437.65 	"/>
	<path d="M2612.29,1225.13l-358.61,164.46L1500,923.94l-376.72,172.77l753.57,465.66l376.65-172.8v341.08l-376.65,172.8v340.59
		l-376.65,172.8l-753.8-465.79l-244.17,111.86c196.67,347.84,569.68,582.82,997.78,582.82c632.76,0,1145.72-512.96,1145.72-1145.73
		C2645.72,1405.21,2633.99,1313.21,2612.29,1225.13z"/>
</g>
</svg>
