<svg width="24" height="24" viewBox="0 0 24 24" fill="none" xmlns="http://www.w3.org/2000/svg">
<circle cx="12" cy="12" r="12" fill="#8247E5"/>
<path d="M16.1379 9.18621C15.8483 9.02069 15.4759 9.02069 15.1448 9.18621L12.8276 10.5517L11.2552 11.4207L8.97932 12.7862C8.68966 12.9517 8.31725 12.9517 7.98622 12.7862L6.2069 11.7103C5.91725 11.5448 5.71035 11.2138 5.71035 10.8414V8.77242C5.71035 8.44138 5.87587 8.11035 6.2069 7.90345L7.98622 6.86897C8.27587 6.70345 8.64828 6.70345 8.97932 6.86897L10.7586 7.94483C11.0483 8.11035 11.2552 8.44138 11.2552 8.8138V10.1793L12.8276 9.26897V7.86207C12.8276 7.53104 12.6621 7.2 12.331 6.99311L9.0207 5.04828C8.73104 4.88276 8.35863 4.88276 8.02759 5.04828L4.63449 7.03449C4.30346 7.2 4.13794 7.53104 4.13794 7.86207V11.7517C4.13794 12.0828 4.30346 12.4138 4.63449 12.6207L7.98622 14.5655C8.27587 14.731 8.64828 14.731 8.97932 14.5655L11.2552 13.2414L12.8276 12.331L15.1035 11.0069C15.3931 10.8414 15.7655 10.8414 16.0966 11.0069L17.8759 12.0414C18.1655 12.2069 18.3724 12.5379 18.3724 12.9103V14.9793C18.3724 15.3103 18.2069 15.6414 17.8759 15.8483L16.1379 16.8828C15.8483 17.0483 15.4759 17.0483 15.1448 16.8828L13.3655 15.8483C13.0759 15.6828 12.869 15.3517 12.869 14.9793V13.6552L11.2966 14.5655V15.931C11.2966 16.2621 11.4621 16.5931 11.7931 16.8L15.1448 18.7448C15.4345 18.9103 15.8069 18.9103 16.1379 18.7448L19.4897 16.8C19.7793 16.6345 19.9862 16.3035 19.9862 15.931V12C19.9862 11.669 19.8207 11.3379 19.4897 11.131L16.1379 9.18621Z" fill="white"/>
</svg>
