<svg width="24" height="24" viewBox="0 0 24 24" fill="none" xmlns="http://www.w3.org/2000/svg">
<path d="M14.3924 10.9966L16.1549 8.00591L20.9056 15.4053L20.9079 16.8254L20.8924 7.05376C20.8812 6.8149 20.7543 6.5964 20.552 6.46753L11.9989 1.54764C11.7989 1.44926 11.5451 1.4504 11.3453 1.55075C11.3184 1.5642 11.2929 1.57893 11.2688 1.59499L11.239 1.61373L2.93686 6.42472L2.90468 6.43935C2.86326 6.45838 2.82134 6.48261 2.78209 6.51073C2.62464 6.62359 2.52014 6.79053 2.48633 6.97778C2.48123 7.00616 2.47748 7.03503 2.47575 7.06424L2.4888 15.0272L6.91386 8.1685C7.47103 7.25906 8.68482 6.96612 9.81167 6.98204L11.1342 7.01694L3.34168 19.5139L4.26026 20.0427L12.146 7.02964L15.6316 7.01699L7.76615 20.3584L11.0439 22.2437L11.4355 22.4689C11.6012 22.5363 11.7965 22.5397 11.9635 22.4793L20.6368 17.453L18.9786 18.4139L14.3924 10.9966ZM15.0648 20.682L11.7543 15.4861L13.7752 12.0569L18.123 18.9098L15.0648 20.682Z" fill="#2D374B"/>
<path d="M11.7543 15.4861L15.0648 20.682L18.123 18.9097L13.7752 12.0568L11.7543 15.4861Z" fill="#28A0F0"/>
<path d="M20.9079 16.8254L20.9056 15.4053L16.1549 8.00586L14.3924 10.9966L18.9786 18.4138L20.6368 17.4529C20.7994 17.3208 20.8978 17.1269 20.9082 16.9178L20.9079 16.8254Z" fill="#28A0F0"/>
<path d="M1.00005 18.1645L3.34167 19.5139L11.1341 7.01698L9.81161 6.98208C8.68477 6.96617 7.47092 7.25911 6.91381 8.16854L2.48874 15.0272L1.00005 17.3146V18.1645V18.1645Z" fill="white"/>
<path d="M15.6316 7.01698L12.146 7.02964L4.26025 20.0427L7.01658 21.6297L7.76615 20.3584L15.6316 7.01698Z" fill="white"/>
<path d="M22.3767 6.99904C22.3476 6.27009 21.9529 5.60278 21.3347 5.21428L12.6694 0.231115C12.0579 -0.0768076 11.2939 -0.0772031 10.6813 0.230917C10.6089 0.267449 2.25458 5.1126 2.25458 5.1126C2.13895 5.16806 2.02758 5.23411 1.92283 5.3091C1.37095 5.70462 1.03455 6.31928 1 6.99454V17.3146L2.4887 15.0272L2.4757 7.06429C2.47743 7.03518 2.48108 7.0065 2.48628 6.97823C2.51994 6.79087 2.62454 6.62374 2.78204 6.51078C2.82134 6.48266 11.3184 1.56424 11.3453 1.55075C11.5451 1.45045 11.7989 1.44926 11.9989 1.54763L20.552 6.46743C20.7543 6.5963 20.8812 6.8148 20.8924 7.05366V16.9178C20.8821 17.1269 20.7994 17.3208 20.6368 17.4529L18.9786 18.4138L18.123 18.9097L15.0648 20.682L11.9635 22.4792C11.7964 22.5396 11.6011 22.5362 11.4355 22.4688L7.7661 20.3584L7.01653 21.6297L10.3141 23.5282C10.4231 23.5902 10.5202 23.6452 10.6 23.69C10.7234 23.7592 10.8076 23.8055 10.8373 23.8199C11.0716 23.9338 11.4089 24 11.7127 24C11.9913 24 12.263 23.9488 12.5201 23.8481L21.5282 18.6313C22.0452 18.2307 22.3493 17.6266 22.3767 16.9722V6.99904Z" fill="#96BEDC"/>
</svg>
