<svg width="24" height="24" viewBox="0 0 24 24" fill="none" xmlns="http://www.w3.org/2000/svg">
<path d="M12 24C18.6274 24 24 18.6274 24 12C24 5.37258 18.6274 0 12 0C5.37258 0 0 5.37258 0 12C0 18.6274 5.37258 24 12 24Z" fill="#627EEA"/>
<path d="M12.0235 3V9.6525L17.6461 12.165L12.0235 3Z" fill="white" fill-opacity="0.602"/>
<path d="M12.0236 3L6.39999 12.165L12.0236 9.6525V3Z" fill="white"/>
<path d="M12.0235 16.476V20.9962L17.6499 13.212L12.0235 16.476Z" fill="white" fill-opacity="0.602"/>
<path d="M12.0236 20.9962V16.4752L6.39999 13.212L12.0236 20.9962Z" fill="white"/>
<path d="M12.0235 15.4298L17.6461 12.165L12.0235 9.654V15.4298Z" fill="white" fill-opacity="0.2"/>
<path d="M6.39999 12.165L12.0236 15.4298V9.654L6.39999 12.165Z" fill="white" fill-opacity="0.602"/>
</svg>
