<svg width="24" height="24" viewBox="0 0 24 24" fill="none" xmlns="http://www.w3.org/2000/svg">
<circle cx="12" cy="12" r="12" fill="white"/>
<path d="M9.83113 5.23248C9.60195 5.19974 9.59104 5.18882 9.70017 5.17791C9.90752 5.14517 10.3877 5.18882 10.726 5.26521C11.5117 5.45074 12.2211 5.93091 12.9741 6.77121L13.1705 7.00038L13.4542 6.95673C14.6656 6.7603 15.9097 6.91308 16.9464 7.39325C17.2302 7.52421 17.6776 7.78612 17.7322 7.8516C17.754 7.87343 17.7867 8.0153 17.8085 8.15716C17.8849 8.67008 17.8522 9.05203 17.6885 9.34668C17.6012 9.51038 17.6012 9.55403 17.6558 9.6959C17.6994 9.80503 17.8304 9.88142 17.9504 9.88142C18.2123 9.88142 18.4852 9.46673 18.6161 8.88834L18.6707 8.65916L18.7689 8.76829C19.3255 9.39034 19.762 10.2525 19.8275 10.8636L19.8493 11.0273L19.7511 10.8854C19.5874 10.6344 19.4346 10.4707 19.2272 10.3289C18.8562 10.0779 18.4633 10.0015 17.4266 9.9469C16.4881 9.89233 15.9533 9.81594 15.4295 9.64134C14.5346 9.34668 14.0763 8.96473 13.0177 7.55695C12.5485 6.93491 12.2538 6.5966 11.9592 6.31286C11.3153 5.69082 10.6714 5.36343 9.83113 5.23248Z" fill="#FF007A"/>
<path d="M17.9613 6.61843C17.9832 6.20373 18.0377 5.93091 18.1578 5.67991C18.2014 5.58169 18.2451 5.49438 18.256 5.49438C18.2669 5.49438 18.2451 5.57078 18.2123 5.65808C18.125 5.89817 18.1141 6.23647 18.1687 6.61843C18.2451 7.10951 18.2778 7.17499 18.8016 7.70973C19.0417 7.96073 19.3255 8.2772 19.4346 8.40816L19.6201 8.64825L19.4346 8.47364C19.2054 8.25538 18.6816 7.84068 18.5616 7.78612C18.4852 7.74247 18.4742 7.74247 18.4197 7.79703C18.376 7.84068 18.3651 7.90616 18.3651 8.22264C18.3542 8.71373 18.2887 9.01929 18.125 9.33577C18.0377 9.49946 18.0268 9.46672 18.1032 9.2812C18.1578 9.13933 18.1687 9.07385 18.1687 8.6046C18.1687 7.65516 18.0596 7.42599 17.3939 7.04403C17.2302 6.94582 16.9464 6.80395 16.7827 6.72756C16.6081 6.65116 16.4772 6.58569 16.4881 6.58569C16.5099 6.56386 17.1538 6.74938 17.4048 6.85851C17.7867 7.01129 17.8522 7.02221 17.8959 7.01129C17.9286 6.97856 17.9504 6.89125 17.9613 6.61843Z" fill="#FF007A"/>
<path d="M10.2786 8.24446C9.82023 7.61151 9.52557 6.62934 9.59105 5.89816L9.61288 5.66899L9.72201 5.69082C9.91844 5.72356 10.2567 5.85451 10.4204 5.95273C10.857 6.21464 11.0534 6.57477 11.2389 7.46964C11.2935 7.73155 11.3699 8.03712 11.4026 8.13533C11.4572 8.29903 11.6645 8.68098 11.8391 8.92107C11.9592 9.09568 11.8828 9.18298 11.61 9.16116C11.1953 9.11751 10.6387 8.73555 10.2786 8.24446Z" fill="#FF007A"/>
<path d="M17.4048 12.9916C15.244 12.1186 14.4801 11.3656 14.4801 10.0888C14.4801 9.90325 14.491 9.75047 14.491 9.75047C14.5019 9.75047 14.5783 9.81595 14.6765 9.89234C15.113 10.2416 15.6041 10.3943 16.9682 10.5908C17.7649 10.7108 18.2232 10.7981 18.6379 10.94C19.9584 11.3765 20.7769 12.2714 20.9733 13.4827C21.0279 13.8319 20.9951 14.4976 20.9078 14.8468C20.8314 15.1197 20.6132 15.6217 20.5586 15.6326C20.5477 15.6326 20.5259 15.578 20.5259 15.4907C20.5041 15.0324 20.2749 14.5959 19.8929 14.2575C19.4346 13.8647 18.8453 13.57 17.4048 12.9916Z" fill="#FF007A"/>
<path d="M15.877 13.3518C15.8551 13.1881 15.8006 12.9807 15.7678 12.8934L15.7133 12.7297L15.8115 12.8498C15.9533 13.0135 16.0625 13.2099 16.1607 13.4827C16.2371 13.6901 16.2371 13.7555 16.2371 14.0938C16.2371 14.4212 16.2262 14.4976 16.1607 14.6831C16.0516 14.9778 15.9206 15.1851 15.7023 15.4143C15.3095 15.8181 14.7966 16.0364 14.0654 16.1346C13.9344 16.1455 13.5634 16.1782 13.236 16.2001C12.4175 16.2437 11.8719 16.331 11.3808 16.5056C11.3153 16.5274 11.2498 16.5493 11.2389 16.5384C11.2171 16.5165 11.5554 16.3201 11.8282 16.1891C12.2102 16.0036 12.603 15.9054 13.4652 15.7526C13.8908 15.6871 14.3273 15.5998 14.4364 15.5562C15.5168 15.2179 16.0516 14.3776 15.877 13.3518Z" fill="#FF007A"/>
<path d="M16.87 15.1088C16.5863 14.4867 16.5208 13.8974 16.6736 13.3409C16.6954 13.2863 16.7172 13.2317 16.7391 13.2317C16.7609 13.2317 16.8264 13.2645 16.8919 13.3081C17.0228 13.3954 17.2956 13.5482 17.9941 13.9302C18.878 14.4103 19.38 14.7814 19.7292 15.207C20.0348 15.578 20.2203 16.0036 20.3076 16.5275C20.3622 16.8221 20.3295 17.5314 20.2531 17.8261C20.013 18.7537 19.4673 19.4958 18.6707 19.9214C18.5506 19.9869 18.4524 20.0305 18.4415 20.0305C18.4306 20.0305 18.4742 19.9214 18.5397 19.7904C18.8016 19.2339 18.8344 18.6991 18.6379 18.0989C18.5179 17.7279 18.2669 17.2805 17.7649 16.5275C17.1647 15.6544 17.0228 15.4252 16.87 15.1088Z" fill="#FF007A"/>
<path d="M8.73982 18.4481C9.54739 17.7715 10.5405 17.2914 11.4572 17.1386C11.85 17.0731 12.5048 17.0949 12.8649 17.1931C13.4433 17.3459 13.9672 17.6733 14.24 18.0771C14.5019 18.47 14.6219 18.8083 14.742 19.5613C14.7856 19.8559 14.8402 20.1615 14.8511 20.227C14.9384 20.6198 15.113 20.9254 15.3313 21.0891C15.6696 21.3401 16.2589 21.351 16.8373 21.1327C16.9355 21.1 17.0228 21.0673 17.0228 21.0782C17.0446 21.1 16.75 21.2964 16.5535 21.3947C16.2807 21.5365 16.0625 21.5802 15.7678 21.5802C15.244 21.5802 14.7965 21.3074 14.4364 20.7617C14.36 20.6526 14.2072 20.3361 14.0763 20.0414C13.6943 19.1575 13.4979 18.8956 13.0505 18.6009C12.6576 18.3499 12.1556 18.2954 11.7736 18.4809C11.2716 18.721 11.1407 19.3648 11.4899 19.7577C11.6318 19.9214 11.8937 20.0524 12.1119 20.0851C12.5157 20.1397 12.8649 19.8232 12.8649 19.4194C12.8649 19.1575 12.7667 19.0047 12.5048 18.8847C12.1556 18.7319 11.7736 18.9065 11.7846 19.2448C11.7846 19.3867 11.85 19.474 11.9919 19.5394C12.0792 19.5831 12.0792 19.5831 12.0137 19.5722C11.6973 19.5067 11.6209 19.1138 11.8719 18.8628C12.1774 18.5573 12.8213 18.6882 13.0396 19.1138C13.1269 19.2884 13.1378 19.6377 13.0614 19.8559C12.8759 20.3361 12.352 20.5871 11.8173 20.4452C11.4572 20.347 11.3044 20.2488 10.8679 19.8014C10.104 19.0156 9.8093 18.8628 8.718 18.6991L8.51065 18.6664L8.73982 18.4481Z" fill="#FF007A"/>
<path fill-rule="evenodd" clip-rule="evenodd" d="M2.99958 0.88909C5.54231 3.97747 9.46009 8.7792 9.65652 9.04112C9.82022 9.25938 9.75474 9.46672 9.48191 9.61951C9.32913 9.70681 9.01265 9.79412 8.85987 9.79412C8.68526 9.79412 8.47792 9.70681 8.33605 9.56494C8.23783 9.46672 7.81222 8.84468 6.85188 7.3496C6.1207 6.20373 5.49866 5.2543 5.48775 5.24339C5.4441 5.22156 5.4441 5.22156 6.77548 7.6006C7.61579 9.09568 7.88861 9.63042 7.88861 9.6959C7.88861 9.83777 7.84496 9.91416 7.67035 10.1106C7.3757 10.438 7.24474 10.809 7.14653 11.5839C7.0374 12.446 6.74275 13.0571 5.90244 14.0938C5.41136 14.705 5.33497 14.8141 5.21492 15.0651C5.06214 15.3707 5.01849 15.5453 4.99666 15.9381C4.97484 16.3528 5.01849 16.6148 5.13853 17.0076C5.24766 17.3568 5.3677 17.586 5.66236 18.0334C5.91336 18.4263 6.06614 18.721 6.06614 18.8301C6.06614 18.9174 6.08796 18.9174 6.48083 18.8301C7.41935 18.6118 8.19418 18.2408 8.61978 17.7824C8.8817 17.4987 8.94718 17.3459 8.94718 16.9531C8.94718 16.7021 8.93626 16.6475 8.87078 16.4947C8.76165 16.2546 8.55431 16.0582 8.10687 15.7526C7.51757 15.3488 7.26657 15.0215 7.20109 14.5849C7.14653 14.2139 7.21201 13.9629 7.5394 13.2754C7.8777 12.566 7.965 12.2714 8.01957 11.5511C8.05231 11.0928 8.10687 10.9072 8.23783 10.7654C8.3797 10.6126 8.49974 10.558 8.83805 10.5144C9.39461 10.438 9.75474 10.2961 10.0385 10.0233C10.2895 9.79412 10.3986 9.56494 10.4095 9.22664L10.4204 8.97564L10.2786 8.82286C9.76565 8.23355 2.66128 0.41983 2.62854 0.41983C2.61762 0.41983 2.79223 0.627178 2.99958 0.88909ZM6.34988 16.4074C6.46992 16.2001 6.40444 15.9381 6.20801 15.8072C6.02249 15.6871 5.73875 15.7417 5.73875 15.9054C5.73875 15.9491 5.76057 15.9927 5.82605 16.0145C5.92427 16.0691 5.93518 16.1237 5.85879 16.2437C5.7824 16.3638 5.7824 16.4729 5.88062 16.5493C6.0334 16.6693 6.24075 16.6038 6.34988 16.4074Z" fill="#FF007A"/>
<path fill-rule="evenodd" clip-rule="evenodd" d="M10.7696 10.6672C10.5077 10.7436 10.2567 11.0273 10.1803 11.311C10.1367 11.4856 10.1585 11.8021 10.2349 11.9003C10.355 12.0531 10.4641 12.0968 10.7696 12.0968C11.3699 12.0968 11.8828 11.8349 11.9373 11.5184C11.9919 11.2565 11.7627 10.8963 11.4463 10.7326C11.2826 10.6453 10.9443 10.6126 10.7696 10.6672ZM11.4681 11.2128C11.5554 11.0819 11.5226 10.94 11.359 10.8418C11.0643 10.6562 10.6169 10.809 10.6169 11.0928C10.6169 11.2346 10.846 11.3874 11.0643 11.3874C11.2062 11.3874 11.4026 11.3001 11.4681 11.2128Z" fill="#FF007A"/>
</svg>
